<mxfile host="app.diagrams.net" agent="Mozilla/5.0 (X11; Linux x86_64) AppleWebKit/537.36 (KHTML, like Gecko) Chrome/134.0.0.0 Safari/537.36" version="26.1.1" pages="3">
  <diagram id="C5RBs43oDa-KdzZeNtuy" name="register_page">
    <mxGraphModel dx="1381" dy="788" grid="1" gridSize="10" guides="1" tooltips="1" connect="1" arrows="1" fold="1" page="1" pageScale="1" pageWidth="827" pageHeight="1169" math="0" shadow="0">
      <root>
        <mxCell id="WIyWlLk6GJQsqaUBKTNV-0" />
        <mxCell id="WIyWlLk6GJQsqaUBKTNV-1" parent="WIyWlLk6GJQsqaUBKTNV-0" />
        <mxCell id="vFqRzFj6SfY-Zso-tEkZ-1" value="&lt;font size=&quot;1&quot;&gt;Provide username, email, phone number&lt;/font&gt;" style="ellipse;whiteSpace=wrap;html=1;" vertex="1" parent="WIyWlLk6GJQsqaUBKTNV-1">
          <mxGeometry x="373" y="60" width="80.5" height="70" as="geometry" />
        </mxCell>
        <mxCell id="vFqRzFj6SfY-Zso-tEkZ-11" value="" style="edgeStyle=orthogonalEdgeStyle;rounded=0;orthogonalLoop=1;jettySize=auto;html=1;" edge="1" parent="WIyWlLk6GJQsqaUBKTNV-1" source="vFqRzFj6SfY-Zso-tEkZ-4" target="vFqRzFj6SfY-Zso-tEkZ-10">
          <mxGeometry relative="1" as="geometry" />
        </mxCell>
        <mxCell id="vFqRzFj6SfY-Zso-tEkZ-4" value="" style="rhombus;whiteSpace=wrap;html=1;" vertex="1" parent="WIyWlLk6GJQsqaUBKTNV-1">
          <mxGeometry x="353.25" y="170" width="120" height="110" as="geometry" />
        </mxCell>
        <mxCell id="vFqRzFj6SfY-Zso-tEkZ-5" value="" style="endArrow=classic;html=1;rounded=0;exitX=0.5;exitY=1;exitDx=0;exitDy=0;" edge="1" parent="WIyWlLk6GJQsqaUBKTNV-1" source="vFqRzFj6SfY-Zso-tEkZ-1" target="vFqRzFj6SfY-Zso-tEkZ-4">
          <mxGeometry width="50" height="50" relative="1" as="geometry">
            <mxPoint x="330" y="200" as="sourcePoint" />
            <mxPoint x="380" y="150" as="targetPoint" />
          </mxGeometry>
        </mxCell>
        <mxCell id="vFqRzFj6SfY-Zso-tEkZ-6" value="" style="endArrow=classic;html=1;rounded=0;entryX=1;entryY=0.5;entryDx=0;entryDy=0;exitX=1;exitY=0.5;exitDx=0;exitDy=0;" edge="1" parent="WIyWlLk6GJQsqaUBKTNV-1" source="vFqRzFj6SfY-Zso-tEkZ-4" target="vFqRzFj6SfY-Zso-tEkZ-1">
          <mxGeometry width="50" height="50" relative="1" as="geometry">
            <mxPoint x="473.25" y="220" as="sourcePoint" />
            <mxPoint x="520" y="90" as="targetPoint" />
            <Array as="points">
              <mxPoint x="520" y="225" />
              <mxPoint x="520" y="95" />
            </Array>
          </mxGeometry>
        </mxCell>
        <mxCell id="vFqRzFj6SfY-Zso-tEkZ-7" value="Yes" style="text;html=1;align=center;verticalAlign=middle;whiteSpace=wrap;rounded=0;" vertex="1" parent="WIyWlLk6GJQsqaUBKTNV-1">
          <mxGeometry x="460" y="200" width="60" height="30" as="geometry" />
        </mxCell>
        <mxCell id="vFqRzFj6SfY-Zso-tEkZ-9" value="&lt;span style=&quot;font-size: 10px;&quot;&gt;email or phone number already used?&lt;/span&gt;" style="text;html=1;align=center;verticalAlign=middle;whiteSpace=wrap;rounded=0;" vertex="1" parent="WIyWlLk6GJQsqaUBKTNV-1">
          <mxGeometry x="384" y="210" width="60" height="30" as="geometry" />
        </mxCell>
        <mxCell id="vFqRzFj6SfY-Zso-tEkZ-10" value="User successfully register as customer" style="ellipse;whiteSpace=wrap;html=1;" vertex="1" parent="WIyWlLk6GJQsqaUBKTNV-1">
          <mxGeometry x="374" y="330" width="80" height="80" as="geometry" />
        </mxCell>
        <mxCell id="vFqRzFj6SfY-Zso-tEkZ-12" value="No" style="text;html=1;align=center;verticalAlign=middle;whiteSpace=wrap;rounded=0;" vertex="1" parent="WIyWlLk6GJQsqaUBKTNV-1">
          <mxGeometry x="393.5" y="300" width="60" height="30" as="geometry" />
        </mxCell>
      </root>
    </mxGraphModel>
  </diagram>
  <diagram id="noeFz-CmRHYCKKzCGjBU" name="login">
    <mxGraphModel dx="552" dy="315" grid="1" gridSize="10" guides="1" tooltips="1" connect="1" arrows="1" fold="1" page="1" pageScale="1" pageWidth="850" pageHeight="1100" math="0" shadow="0">
      <root>
        <mxCell id="0" />
        <mxCell id="1" parent="0" />
        <mxCell id="GZhc0Tuc8JsuoQ8Yy22w-4" value="" style="edgeStyle=orthogonalEdgeStyle;rounded=0;orthogonalLoop=1;jettySize=auto;html=1;" edge="1" parent="1" source="GZhc0Tuc8JsuoQ8Yy22w-1" target="GZhc0Tuc8JsuoQ8Yy22w-3">
          <mxGeometry relative="1" as="geometry" />
        </mxCell>
        <mxCell id="GZhc0Tuc8JsuoQ8Yy22w-1" value="" style="strokeWidth=2;html=1;shape=mxgraph.flowchart.start_1;whiteSpace=wrap;" vertex="1" parent="1">
          <mxGeometry x="370" y="10" width="100" height="60" as="geometry" />
        </mxCell>
        <mxCell id="GZhc0Tuc8JsuoQ8Yy22w-2" value="Provide email and password" style="text;html=1;align=center;verticalAlign=middle;whiteSpace=wrap;rounded=0;" vertex="1" parent="1">
          <mxGeometry x="390" y="25" width="60" height="30" as="geometry" />
        </mxCell>
        <mxCell id="GZhc0Tuc8JsuoQ8Yy22w-7" value="" style="edgeStyle=orthogonalEdgeStyle;rounded=0;orthogonalLoop=1;jettySize=auto;html=1;" edge="1" parent="1" source="GZhc0Tuc8JsuoQ8Yy22w-3" target="GZhc0Tuc8JsuoQ8Yy22w-6">
          <mxGeometry relative="1" as="geometry" />
        </mxCell>
        <mxCell id="GZhc0Tuc8JsuoQ8Yy22w-3" value="" style="rhombus;whiteSpace=wrap;html=1;strokeWidth=2;" vertex="1" parent="1">
          <mxGeometry x="380" y="140" width="80" height="80" as="geometry" />
        </mxCell>
        <mxCell id="GZhc0Tuc8JsuoQ8Yy22w-5" value="Account verified?" style="text;html=1;align=center;verticalAlign=middle;whiteSpace=wrap;rounded=0;" vertex="1" parent="1">
          <mxGeometry x="390" y="160" width="60" height="30" as="geometry" />
        </mxCell>
        <mxCell id="GZhc0Tuc8JsuoQ8Yy22w-10" value="" style="edgeStyle=orthogonalEdgeStyle;rounded=0;orthogonalLoop=1;jettySize=auto;html=1;" edge="1" parent="1" source="GZhc0Tuc8JsuoQ8Yy22w-6" target="GZhc0Tuc8JsuoQ8Yy22w-9">
          <mxGeometry relative="1" as="geometry" />
        </mxCell>
        <mxCell id="GZhc0Tuc8JsuoQ8Yy22w-6" value="" style="rhombus;whiteSpace=wrap;html=1;strokeWidth=2;" vertex="1" parent="1">
          <mxGeometry x="380" y="300" width="80" height="80" as="geometry" />
        </mxCell>
        <mxCell id="GZhc0Tuc8JsuoQ8Yy22w-8" value="correct credential?" style="text;html=1;align=center;verticalAlign=middle;whiteSpace=wrap;rounded=0;" vertex="1" parent="1">
          <mxGeometry x="390" y="320" width="60" height="30" as="geometry" />
        </mxCell>
        <mxCell id="GZhc0Tuc8JsuoQ8Yy22w-9" value="" style="strokeWidth=2;html=1;shape=mxgraph.flowchart.start_1;whiteSpace=wrap;" vertex="1" parent="1">
          <mxGeometry x="370" y="460" width="100" height="60" as="geometry" />
        </mxCell>
        <mxCell id="GZhc0Tuc8JsuoQ8Yy22w-11" value="Login Successfully" style="text;html=1;align=center;verticalAlign=middle;whiteSpace=wrap;rounded=0;" vertex="1" parent="1">
          <mxGeometry x="390" y="475" width="60" height="30" as="geometry" />
        </mxCell>
        <mxCell id="GZhc0Tuc8JsuoQ8Yy22w-12" value="Yes" style="text;html=1;align=center;verticalAlign=middle;whiteSpace=wrap;rounded=0;" vertex="1" parent="1">
          <mxGeometry x="410" y="240" width="60" height="30" as="geometry" />
        </mxCell>
        <mxCell id="GZhc0Tuc8JsuoQ8Yy22w-13" value="Yes" style="text;html=1;align=center;verticalAlign=middle;whiteSpace=wrap;rounded=0;" vertex="1" parent="1">
          <mxGeometry x="410" y="400" width="60" height="30" as="geometry" />
        </mxCell>
      </root>
    </mxGraphModel>
  </diagram>
  <diagram id="HBIR7eQrUnOpqF7QMStF" name="verify-otp">
    <mxGraphModel dx="317" dy="1281" grid="1" gridSize="10" guides="1" tooltips="1" connect="1" arrows="1" fold="1" page="1" pageScale="1" pageWidth="850" pageHeight="1100" math="0" shadow="0">
      <root>
        <mxCell id="0" />
        <mxCell id="1" parent="0" />
        <mxCell id="VHKnEa8WwJXdFh9jCan5-1" value="" style="strokeWidth=2;html=1;shape=mxgraph.flowchart.start_1;whiteSpace=wrap;" vertex="1" parent="1">
          <mxGeometry x="50" y="-1080" width="100" height="60" as="geometry" />
        </mxCell>
      </root>
    </mxGraphModel>
  </diagram>
</mxfile>
